<?xml version="1.0" ?>
<svg data-name="Layer 1" id="Layer_1" viewBox="0 0 128 128" xmlns="http://www.w3.org/2000/svg">
<defs>
    <style>.cls-1{fill:#67C3FE;}</style>
</defs>
<title/>
<path class="cls-1" d="M99.59,83.71H28.41a5,5,0,0,0-5,5v16.15a5,5,0,0,0,5,5H99.59a5,5,0,0,0,5-5V88.71A5,5,0,0,0,99.59,83.71Zm1,21.15a1,1,0,0,1-1,1H28.41a1,1,0,0,1-1-1V88.71a1,1,0,0,1,1-1H99.59a1,1,0,0,1,1,1Z"/>
<path class="cls-1" d="M60.46,78.15A5,5,0,0,0,64,79.61h.15a2.31,2.31,0,0,0,.46,0,5,5,0,0,0,2.93-1.41L87.3,58.39a2,2,0,0,0-2.83-2.83L66.13,73.9,66,20.14a2,2,0,0,0-2-2h0a2,2,0,0,0-2,2l.13,54-18.6-18.6a2,2,0,0,0-2.83,2.83Z"/>
<path class="cls-1" d="M55.37,94.93,35,94.78h0a2,2,0,0,0,0,4l20.35.15h0a2,2,0,0,0,0-4Z"/>
</svg>