<?xml version="1.0" ?>
<svg data-name="Layer 1" id="Layer_1" viewBox="0 0 128 128" xmlns="http://www.w3.org/2000/svg">
<defs>
    <style>.cls-1{fill:#72FEA9;}</style>
</defs>
<title/>
<path class="cls-1" d="M99.59,83.71H28.41a5,5,0,0,0-5,5v16.15a5,5,0,0,0,5,5H99.59a5,5,0,0,0,5-5V88.71A5,5,0,0,0,99.59,83.71Zm1,21.15a1,1,0,0,1-1,1H28.41a1,1,0,0,1-1-1V88.71a1,1,0,0,1,1-1H99.59a1,1,0,0,1,1,1Z"/>
<path class="cls-1" d="M43.53,42.2l18.6-18.61-.13,54a2,2,0,0,0,2,2h0a2,2,0,0,0,2-2l.13-53.76L84.47,42.2a2,2,0,0,0,1.42.59,2,2,0,0,0,1.41-3.42L67.54,19.61a5,5,0,0,0-2.93-1.41,2.32,2.32,0,0,0-.46-.06H64a5,5,0,0,0-3.54,1.47L40.7,39.37a2,2,0,0,0,2.83,2.83Z"/>
<path class="cls-1" d="M55.37,94.93,35,94.78a2,2,0,1,0,0,4l20.35.15h0a2,2,0,0,0,0-4Z"/>
</svg>